<svg width="286" height="1566" viewBox="0 0 286 1566" fill="none" xmlns="http://www.w3.org/2000/svg">
<path d="M139.986 253.474C113.778 253.474 91.1932 248.467 72.2301 238.453C53.3736 228.332 38.8317 213.844 28.6044 194.987C18.4837 176.024 13.4233 153.332 13.4233 126.912C13.4233 101.557 18.5369 79.3977 28.7642 60.4347C38.9915 41.4716 53.4268 26.7166 72.0703 16.1697C90.7138 5.62287 112.713 0.349434 138.068 0.349434C156.605 0.349434 173.384 3.22585 188.406 8.97869C203.427 14.7315 216.264 23.0945 226.918 34.0675C237.571 44.9339 245.774 58.1442 251.527 73.6982C257.28 89.2521 260.156 106.777 260.156 126.273V146.727H40.9091V98.1477H178.977C178.871 91.1165 177.06 84.9375 173.544 79.6108C170.135 74.1776 165.501 69.9695 159.641 66.9865C153.889 63.897 147.337 62.3523 139.986 62.3523C132.848 62.3523 126.296 63.897 120.33 66.9865C114.364 69.9695 109.57 74.1243 105.948 79.451C102.433 84.7777 100.568 91.0099 100.355 98.1477V150.562C100.355 158.446 102.006 165.477 105.309 171.656C108.612 177.835 113.352 182.683 119.531 186.198C125.71 189.714 133.168 191.472 141.903 191.472C147.976 191.472 153.516 190.619 158.523 188.915C163.636 187.21 168.004 184.76 171.626 181.564C175.249 178.261 177.912 174.32 179.616 169.739H260.156C257.386 186.784 250.835 201.592 240.501 214.163C230.167 226.628 216.477 236.322 199.432 243.247C182.493 250.065 162.678 253.474 139.986 253.474Z" fill="white"/>
<path d="M88.0653 655.045C77.9446 655.045 68.3033 654.246 59.1413 652.648C49.9794 651.157 41.9361 649.08 35.0114 646.416L54.1875 583.774C61.4318 586.331 68.0369 587.982 74.0028 588.728C80.0753 589.474 85.2422 589.048 89.5036 587.45C93.8715 585.852 97.0142 582.815 98.9318 578.341L100.849 573.866L14.5568 317.545H106.602L146.233 487.574H148.79L189.06 317.545H281.744L192.256 583.455C187.781 596.984 181.283 609.129 172.76 619.889C164.344 630.756 153.264 639.332 139.521 645.617C125.778 651.903 108.626 655.045 88.0653 655.045Z" fill="white"/>
<path d="M140.625 944.474C113.991 944.474 91.1932 939.201 72.2301 928.654C53.267 918.001 38.7251 903.192 28.6044 884.229C18.4837 865.16 13.4233 843.054 13.4233 817.912C13.4233 792.77 18.4837 770.717 28.6044 751.754C38.7251 732.685 53.267 717.876 72.2301 707.33C91.1932 696.676 113.991 691.349 140.625 691.349C167.259 691.349 190.057 696.676 209.02 707.33C227.983 717.876 242.525 732.685 252.646 751.754C262.766 770.717 267.827 792.77 267.827 817.912C267.827 843.054 262.766 865.16 252.646 884.229C242.525 903.192 227.983 918.001 209.02 928.654C190.057 939.201 167.259 944.474 140.625 944.474ZM141.264 879.276C148.722 879.276 155.167 876.772 160.6 871.765C166.033 866.758 170.241 859.62 173.224 850.352C176.207 841.083 177.699 830.057 177.699 817.273C177.699 804.382 176.207 793.356 173.224 784.194C170.241 774.925 166.033 767.788 160.6 762.781C155.167 757.773 148.722 755.27 141.264 755.27C133.381 755.27 126.616 757.773 120.969 762.781C115.323 767.788 111.009 774.925 108.026 784.194C105.043 793.356 103.551 804.382 103.551 817.273C103.551 830.057 105.043 841.083 108.026 850.352C111.009 859.62 115.323 866.758 120.969 871.765C126.616 876.772 133.381 879.276 141.264 879.276Z" fill="white"/>
<path d="M110.582 1109.93V1248H22.3722V1002.55H106.108V1049.21H108.665C113.991 1033.65 123.366 1021.46 136.79 1012.61C150.32 1003.77 166.087 999.349 184.091 999.349C201.456 999.349 216.531 1003.34 229.315 1011.33C242.205 1019.22 252.166 1030.08 259.197 1043.93C266.335 1057.78 269.851 1073.6 269.744 1091.39V1248H181.534V1109.93C181.641 1097.79 178.551 1088.25 172.266 1081.33C166.087 1074.4 157.457 1070.94 146.378 1070.94C139.134 1070.94 132.795 1072.54 127.362 1075.73C122.035 1078.82 117.933 1083.3 115.057 1089.16C112.18 1094.91 110.689 1101.84 110.582 1109.93Z" fill="white"/>
<path d="M90.767 1565.84C75.1065 1565.84 61.2571 1563.28 49.2188 1558.16C37.2869 1552.94 27.9119 1545.06 21.0938 1534.51C14.2756 1523.97 10.8665 1510.54 10.8665 1494.24C10.8665 1480.82 13.157 1469.37 17.7379 1459.89C22.3189 1450.3 28.7109 1442.47 36.9141 1436.4C45.1172 1430.32 54.652 1425.69 65.5185 1422.49C76.4915 1419.3 88.3168 1417.22 100.994 1416.26C114.737 1415.2 125.764 1413.92 134.073 1412.43C142.489 1410.83 148.562 1408.64 152.29 1405.87C156.019 1403 157.884 1399.22 157.884 1394.53V1393.89C157.884 1387.5 155.433 1382.6 150.533 1379.19C145.632 1375.78 139.347 1374.07 131.676 1374.07C123.26 1374.07 116.388 1375.94 111.062 1379.67C105.842 1383.29 102.699 1388.88 101.634 1396.45H20.4545C21.5199 1381.53 26.2607 1367.79 34.6768 1355.22C43.1996 1342.54 55.6108 1332.42 71.9105 1324.86C88.2102 1317.18 108.558 1313.35 132.955 1313.35C150.533 1313.35 166.3 1315.43 180.256 1319.58C194.212 1323.63 206.09 1329.33 215.891 1336.68C225.692 1343.92 233.15 1352.45 238.263 1362.25C243.484 1371.94 246.094 1382.49 246.094 1393.89V1562H163.636V1527.48H161.719C156.818 1536.64 150.852 1544.05 143.821 1549.7C136.896 1555.34 128.96 1559.44 120.011 1562C111.168 1564.56 101.42 1565.84 90.767 1565.84ZM119.531 1510.22C126.243 1510.22 132.528 1508.84 138.388 1506.07C144.354 1503.3 149.201 1499.3 152.93 1494.08C156.658 1488.86 158.523 1482.53 158.523 1475.07V1454.61C156.179 1455.57 153.675 1456.48 151.012 1457.33C148.455 1458.18 145.685 1458.98 142.702 1459.73C139.826 1460.47 136.737 1461.17 133.434 1461.8C130.238 1462.44 126.882 1463.03 123.366 1463.56C116.548 1464.63 110.955 1466.39 106.587 1468.84C102.326 1471.18 99.13 1474.11 96.9993 1477.62C94.9751 1481.03 93.9631 1484.87 93.9631 1489.13C93.9631 1495.95 96.3601 1501.17 101.154 1504.79C105.948 1508.41 112.074 1510.22 119.531 1510.22Z" fill="white"/>
</svg>
